<?xml version="1.0" encoding="UTF-8" standalone="no"?>
<!DOCTYPE svg PUBLIC "-//W3C//DTD SVG 1.1//EN" "http://www.w3.org/Graphics/SVG/1.1/DTD/svg11.dtd">
<svg version="1.1" xmlns="http://www.w3.org/2000/svg" xmlns:xlink="http://www.w3.org/1999/xlink" preserveAspectRatio="xMidYMid meet" viewBox="0 0 231 231" width="231" height="231"><defs><path d="M0 0L231 0L231 231L0 231L0 0Z" id="ceQir1waK"></path><path d="M0 0L1 0L1 231L0 231L0 0Z" id="bWPVF1qfP"></path><path d="M231 0L231 1L0 1L0 0L231 0Z" id="b1AEicr0XI"></path><path d="M45 0L46 0L46 231L45 231L45 0Z" id="c2DyyFAYFs"></path><path d="M91 0L92 0L92 231L91 231L91 0Z" id="e2wgjT2B1s"></path><path d="M137 0L138 0L138 231L137 231L137 0Z" id="bsvpEwW4"></path><path d="M184 0L185 0L185 231L184 231L184 0Z" id="a1BPhw8NRE"></path><path d="M231 45L231 46L0 46L0 45L231 45Z" id="a5ndrFm4f"></path><path d="M231 91L231 92L0 92L0 91L231 91Z" id="baZK7vgdI4"></path><path d="M231 137L231 138L0 138L0 137L231 137Z" id="bUM5FLQfb"></path><path d="M231 184L231 185L0 185L0 184L231 184Z" id="cXqlS8K9J"></path></defs><g><g><g><use xlink:href="#ceQir1waK" opacity="1" fill="#232323" fill-opacity="1"></use></g><g><use xlink:href="#bWPVF1qfP" opacity="1" fill="#131313" fill-opacity="1"></use></g><g><use xlink:href="#b1AEicr0XI" opacity="1" fill="#131313" fill-opacity="1"></use></g><g><g><use xlink:href="#c2DyyFAYFs" opacity="1" fill="#191919" fill-opacity="1"></use></g><g><use xlink:href="#e2wgjT2B1s" opacity="1" fill="#191919" fill-opacity="1"></use></g><g><use xlink:href="#bsvpEwW4" opacity="1" fill="#191919" fill-opacity="1"></use></g><g><use xlink:href="#a1BPhw8NRE" opacity="1" fill="#191919" fill-opacity="1"></use></g></g><g><g><use xlink:href="#a5ndrFm4f" opacity="1" fill="#191919" fill-opacity="1"></use></g><g><use xlink:href="#baZK7vgdI4" opacity="1" fill="#191919" fill-opacity="1"></use></g><g><use xlink:href="#bUM5FLQfb" opacity="1" fill="#191919" fill-opacity="1"></use></g><g><use xlink:href="#cXqlS8K9J" opacity="1" fill="#191919" fill-opacity="1"></use></g></g></g></g></svg>